<?xml version="1.0" encoding="UTF-8"?><!DOCTYPE svg PUBLIC "-//W3C//DTD SVG 1.1//EN" "http://www.w3.org/Graphics/SVG/1.1/DTD/svg11.dtd"><svg xmlns="http://www.w3.org/2000/svg"><symbol id="icon-arrow-down" viewBox="0 0 444.819 444.819">
    <path d="M434.252 114.203l-21.409-21.416c-7.419-7.04-16.084-10.561-25.975-10.561-10.095 0-18.657 3.521-25.7 10.561L222.41 231.549 83.653 92.791c-7.042-7.04-15.606-10.561-25.697-10.561-9.896 0-18.559 3.521-25.979 10.561l-21.128 21.416C3.615 121.436 0 130.099 0 140.188c0 10.277 3.619 18.842 10.848 25.693l185.864 185.865c6.855 7.23 15.416 10.848 25.697 10.848 10.088 0 18.75-3.617 25.977-10.848l185.865-185.865c7.043-7.044 10.567-15.608 10.567-25.693.001-9.901-3.523-18.559-10.566-25.985z"/>
</symbol><symbol id="icon-arrow-right-2" viewBox="0 0 492.004 492.004">
    <path d="M382.678 226.804L163.73 7.86C158.666 2.792 151.906 0 144.698 0s-13.968 2.792-19.032 7.86l-16.124 16.12c-10.492 10.504-10.492 27.576 0 38.064L293.398 245.9l-184.06 184.06c-5.064 5.068-7.86 11.824-7.86 19.028 0 7.212 2.796 13.968 7.86 19.04l16.124 16.116c5.068 5.068 11.824 7.86 19.032 7.86s13.968-2.792 19.032-7.86L382.678 265c5.076-5.084 7.864-11.872 7.848-19.088.016-7.244-2.772-14.028-7.848-19.108z"/>
</symbol><symbol id="icon-check" viewBox="0 0 52 52">
    <path d="M26 0C11.664 0 0 11.663 0 26s11.664 26 26 26 26-11.663 26-26S40.336 0 26 0zm14.495 17.329l-16 18a1.997 1.997 0 0 1-2.745.233l-10-8a2 2 0 0 1 2.499-3.124l8.517 6.813L37.505 14.67a2.001 2.001 0 0 1 2.99 2.659z"/>
</symbol></svg>